<svg id="svg" version="1.1" width="270" height="270" viewBox="0 0 270 270" xmlns="http://www.w3.org/2000/svg"><path d="M122.362 32.302 C 98.159 56.987,80.681 79.554,62.959 109.000 C 53.677 124.422,37.893 158.484,35.423 168.421 L 34.697 171.342 39.599 167.927 C 44.816 164.293,53.337 155.930,102.778 105.918 L 134.000 74.336 134.000 48.727 C 134.000 34.642,133.631 22.890,133.180 22.611 C 132.729 22.333,127.861 26.694,122.362 32.302 M136.696 22.637 C 136.313 23.020,136.000 34.809,136.000 48.835 L 136.000 74.336 166.800 105.418 C 183.741 122.513,202.753 141.843,209.050 148.372 C 219.289 158.989,233.848 171.486,234.832 170.502 C 236.070 169.263,221.651 135.568,212.793 119.000 C 206.179 106.629,187.138 77.810,178.436 67.000 C 162.045 46.638,138.122 21.211,136.696 22.637 M124.469 87.250 C 112.882 99.218,106.355 106.355,107.500 105.804 C 108.050 105.540,114.237 101.833,121.250 97.568 L 134.000 89.812 134.000 84.406 C 134.000 81.433,133.653 79.000,133.228 79.000 C 132.803 79.000,128.862 82.713,124.469 87.250 M136.000 84.406 L 136.000 89.812 148.750 97.568 C 155.762 101.833,161.950 105.540,162.500 105.804 C 163.645 106.355,157.118 99.218,145.531 87.250 C 141.138 82.713,137.197 79.000,136.772 79.000 C 136.347 79.000,136.000 81.433,136.000 84.406 M115.500 103.877 C 105.769 109.822,97.095 115.973,93.363 119.576 L 87.225 125.500 75.462 160.307 C 64.429 192.954,63.769 195.342,64.831 198.807 C 67.086 206.162,82.471 246.000,83.057 246.000 C 83.388 246.000,83.461 238.912,83.219 230.250 C 82.723 212.519,84.230 200.818,88.660 188.000 C 91.672 179.285,97.002 168.317,101.171 162.254 C 105.888 155.394,120.668 140.413,127.594 135.470 L 134.000 130.899 134.000 112.449 C 134.000 98.329,133.707 94.012,132.750 94.051 C 132.063 94.079,124.300 98.501,115.500 103.877 M136.000 112.521 L 136.000 131.041 140.750 134.223 C 152.337 141.983,170.902 163.354,176.345 175.198 C 184.506 192.957,187.477 208.930,186.766 231.229 C 186.487 239.981,186.608 246.772,187.036 246.321 C 187.464 245.869,192.014 234.298,197.146 220.607 L 206.479 195.713 194.489 160.283 L 182.500 124.853 176.440 119.176 C 170.951 114.035,139.595 94.000,137.038 94.000 C 136.358 94.000,136.000 100.385,136.000 112.521 M69.496 143.250 C 63.000 149.988,56.144 157.131,54.261 159.125 L 50.837 162.751 52.849 167.625 C 53.956 170.306,56.319 176.438,58.102 181.250 C 59.885 186.063,61.716 190.000,62.172 190.000 C 62.627 190.000,63.000 189.831,63.000 189.625 C 63.000 189.419,67.473 176.144,72.940 160.125 C 78.407 144.106,82.526 131.000,82.094 131.000 C 81.661 131.000,75.992 136.512,69.496 143.250 M197.060 160.177 C 202.527 176.224,207.000 189.499,207.000 189.677 C 207.000 189.855,207.373 190.000,207.828 190.000 C 208.284 190.000,210.115 186.063,211.898 181.250 C 213.681 176.438,216.043 170.311,217.147 167.635 L 219.154 162.771 216.327 159.720 C 206.651 149.279,188.559 131.000,187.902 131.000 C 187.472 131.000,191.593 144.130,197.060 160.177 M40.750 170.134 C 37.038 172.923,34.000 175.683,34.000 176.266 C 34.000 177.660,43.397 195.380,49.506 205.507 C 61.703 225.724,80.897 253.206,80.931 250.500 C 80.957 248.484,49.325 165.609,48.427 165.340 C 47.917 165.187,44.462 167.344,40.750 170.134 M220.310 166.750 C 219.966 167.713,218.809 170.750,217.740 173.500 C 209.432 194.878,189.004 250.338,189.322 250.655 C 190.387 251.721,209.826 223.206,223.523 200.486 C 228.489 192.248,236.096 176.692,235.683 175.618 C 235.194 174.342,222.749 165.000,221.539 165.000 C 221.208 165.000,220.655 165.787,220.310 166.750 " stroke="none" fill="black" fill-rule="evenodd"/></svg>